<?xml version="1.0" standalone="no"?>
<!DOCTYPE svg PUBLIC "-//W3C//DTD SVG 20010904//EN"
 "http://www.w3.org/TR/2001/REC-SVG-20010904/DTD/svg10.dtd">
<svg version="1.0" xmlns="http://www.w3.org/2000/svg"
 width="1181.000000pt" height="1098.000000pt" viewBox="0 0 1181.000000 1098.000000"
 preserveAspectRatio="xMidYMid meet">

<g transform="translate(0.000000,1098.000000) scale(0.100000,-0.100000)"
fill="#000000" stroke="none">
<path d="M2947 8380 c-167 -28 -279 -123 -326 -275 -32 -101 -41 -203 -41
-438 0 -324 26 -467 104 -569 96 -125 346 -168 686 -118 74 11 136 20 138 20
1 0 2 160 2 355 l0 355 -222 -2 -223 -3 -3 -107 -3 -108 81 0 80 0 0 -154 0
-154 -44 -11 c-78 -19 -168 -14 -206 12 -73 49 -89 118 -97 422 -11 443 31
575 182 575 104 0 165 -68 165 -182 l0 -58 146 0 147 0 -5 78 c-13 194 -119
316 -313 357 -75 16 -171 18 -248 5z"/>
<path d="M5250 8379 c-76 -13 -169 -59 -215 -105 -49 -50 -91 -141 -112 -240
-21 -105 -24 -582 -4 -694 36 -199 104 -295 250 -351 78 -31 278 -38 371 -15
165 43 244 124 292 304 17 64 21 118 25 323 11 518 -50 687 -277 760 -75 24
-244 34 -330 18z m210 -214 c80 -41 103 -147 103 -485 1 -275 -9 -369 -46
-434 -34 -60 -68 -81 -135 -81 -105 0 -152 60 -173 218 -17 134 -7 596 15 664
18 56 57 110 90 123 34 14 115 11 146 -5z"/>
<path d="M3800 7676 l0 -696 145 0 145 0 0 286 0 286 89 -4 c96 -3 123 -15
165 -72 19 -25 22 -47 27 -224 4 -108 12 -214 18 -234 l12 -38 144 0 144 0
-10 33 c-5 17 -14 127 -19 243 -7 184 -11 218 -30 263 -33 75 -84 111 -195
136 -30 7 -29 8 19 22 129 38 194 132 204 294 8 142 -30 255 -109 322 -77 67
-98 70 -441 75 l-308 4 0 -696z m515 442 c73 -68 70 -235 -5 -310 l-38 -38
-91 0 -91 0 0 190 0 190 95 0 c94 0 96 -1 130 -32z"/>
<path d="M6130 7837 c0 -593 1 -607 65 -704 43 -64 110 -115 190 -144 76 -27
257 -37 348 -19 130 25 235 98 286 199 49 95 51 121 51 678 l0 523 -145 0
-144 0 -3 -537 -3 -538 -23 -43 c-26 -49 -66 -77 -123 -86 -79 -13 -151 23
-185 91 -18 35 -19 76 -24 573 l-5 535 -142 3 -143 3 0 -534z"/>
<path d="M7350 7675 l0 -695 145 0 145 0 0 280 0 280 113 0 c275 1 395 58 459
219 30 77 33 284 4 378 -38 126 -128 201 -266 223 -36 5 -185 10 -332 10
l-268 0 0 -695z m526 456 c38 -23 64 -76 71 -146 8 -76 -12 -140 -59 -187
l-38 -38 -105 0 -105 0 0 195 0 195 103 0 c82 0 108 -4 133 -19z"/>
<path d="M8460 7675 l0 -695 385 0 385 0 0 105 0 105 -240 0 -240 0 0 205 0
205 215 0 215 0 0 105 0 105 -215 0 -215 0 0 170 0 170 233 2 232 3 0 105 0
105 -377 3 -378 2 0 -695z"/>
<path d="M6044 6835 c-175 -31 -337 -113 -429 -218 -57 -65 -117 -180 -145
-277 -32 -108 -40 -384 -15 -496 22 -100 61 -183 126 -268 92 -118 223 -201
494 -311 168 -68 233 -101 307 -159 77 -61 112 -133 112 -231 0 -174 -129
-285 -280 -240 -103 30 -150 109 -161 268 l-6 87 -325 0 -325 0 6 -128 c21
-408 202 -608 597 -661 300 -40 610 -10 804 78 150 68 250 163 312 296 53 116
69 207 69 395 -1 186 -19 277 -77 380 -103 184 -241 288 -548 413 -257 105
-323 141 -395 213 -54 54 -75 106 -75 189 0 75 28 153 66 187 32 28 90 48 140
48 118 0 194 -107 194 -272 l0 -68 315 0 315 0 0 58 c0 80 -25 236 -49 305
-77 220 -209 334 -465 399 -108 27 -439 35 -562 13z"/>
<path d="M8780 6796 c0 -13 437 -1871 444 -1891 3 -5 5 421 5 948 l1 957 -225
0 c-186 0 -225 -2 -225 -14z"/>
<path d="M2580 5510 l0 -1290 335 0 335 0 0 1290 0 1290 -335 0 -335 0 0
-1290z"/>
<path d="M3440 5510 l0 -1290 315 0 315 0 0 802 c0 441 2 799 4 797 3 -2 97
-333 211 -734 113 -402 215 -760 226 -797 l20 -68 369 0 370 0 0 1290 0 1290
-315 0 -315 0 0 -797 c0 -438 -3 -793 -7 -789 -4 4 -104 361 -223 794 l-215
787 -378 3 -377 2 0 -1290z"/>
<path d="M7741 6763 c-14 -50 -611 -2533 -611 -2539 0 -2 159 -3 352 -2 l353
3 33 215 c18 118 34 221 37 228 3 10 63 12 272 10 l268 -3 34 -227 35 -228
358 0 c197 0 358 1 358 3 0 2 -139 572 -310 1267 -170 696 -312 1275 -315
1288 l-5 22 -425 0 -424 0 -10 -37z m529 -1021 c49 -293 90 -539 90 -547 0
-13 -29 -15 -185 -15 -179 0 -185 1 -185 20 0 18 161 984 176 1053 3 16 8 27
10 25 2 -2 44 -243 94 -536z"/>
<path d="M5300 3480 c0 -180 2 -210 15 -210 13 0 15 30 15 210 0 180 -2 210
-15 210 -13 0 -15 -30 -15 -210z"/>
<path d="M6220 3665 c0 -16 6 -25 15 -25 9 0 15 9 15 25 0 16 -6 25 -15 25 -9
0 -15 -9 -15 -25z"/>
<path d="M7180 3480 c0 -203 1 -210 20 -210 19 0 20 7 20 175 0 96 3 175 8
175 4 -1 61 -79 126 -175 97 -143 123 -175 143 -175 l23 0 0 210 c0 203 -1
210 -20 210 -19 0 -20 -8 -22 -177 l-3 -177 -120 176 c-106 156 -123 177 -147
178 l-28 0 0 -210z"/>
<path d="M8100 3665 c0 -16 6 -25 15 -25 9 0 15 9 15 25 0 16 -6 25 -15 25 -9
0 -15 -9 -15 -25z"/>
<path d="M9180 3480 c0 -180 2 -210 15 -210 13 0 15 30 15 210 0 180 -2 210
-15 210 -13 0 -15 -30 -15 -210z"/>
<path d="M6058 3623 c-3 -41 -6 -48 -25 -51 -31 -5 -29 -22 2 -22 l25 0 0
-128 c0 -86 4 -132 12 -140 14 -14 88 -16 88 -2 0 6 -9 10 -19 10 -44 0 -52
25 -49 144 l3 111 33 3 c17 2 32 7 32 12 0 5 -15 10 -32 12 -32 3 -33 5 -36
51 -2 32 -8 47 -17 47 -9 0 -15 -15 -17 -47z"/>
<path d="M6348 3623 c-3 -41 -6 -48 -25 -51 -31 -5 -29 -22 2 -22 l25 0 0
-128 c0 -86 4 -132 12 -140 14 -14 88 -16 88 -2 0 6 -9 10 -19 10 -44 0 -52
25 -49 144 l3 111 33 3 c17 2 32 7 32 12 0 5 -15 10 -32 12 -32 3 -33 5 -36
51 -2 32 -8 47 -17 47 -9 0 -15 -15 -17 -47z"/>
<path d="M6850 3620 c0 -47 -2 -50 -25 -50 -14 0 -25 -4 -25 -10 0 -5 11 -10
25 -10 l25 0 0 -121 c0 -66 5 -129 10 -140 8 -14 21 -19 50 -19 47 0 53 15 10
24 l-30 6 0 125 0 125 30 0 c17 0 30 5 30 10 0 6 -13 10 -30 10 -29 0 -30 1
-30 50 0 43 -3 50 -20 50 -17 0 -20 -7 -20 -50z"/>
<path d="M7938 3623 c-3 -44 -5 -48 -30 -51 -38 -4 -36 -22 2 -22 l30 0 0
-124 c0 -68 3 -131 6 -140 7 -18 94 -23 94 -6 0 6 -11 10 -25 10 -37 0 -45 27
-45 149 l0 111 35 0 c44 0 46 18 3 22 -32 3 -33 5 -36 51 -2 32 -8 47 -17 47
-9 0 -15 -15 -17 -47z"/>
<path d="M5484 3555 c-30 -30 -34 -31 -34 -5 0 11 -7 20 -15 20 -13 0 -15 -23
-15 -150 0 -127 2 -150 15 -150 12 0 15 15 15 78 1 100 13 149 44 181 33 33
87 34 119 3 20 -20 22 -34 26 -142 2 -94 6 -120 17 -120 21 0 20 229 -1 269
-17 35 -32 41 -96 41 -40 0 -55 -5 -75 -25z"/>
<path d="M5765 3555 c-24 -24 -31 -57 -19 -90 8 -21 50 -42 110 -55 57 -13 84
-34 84 -66 0 -31 -36 -54 -87 -54 -36 0 -46 5 -70 35 -43 54 -69 45 -38 -14
33 -65 190 -67 224 -3 33 62 -4 112 -96 131 -40 9 -70 22 -84 37 -20 22 -21
25 -6 48 32 48 119 41 142 -12 13 -31 49 -30 40 1 -13 45 -51 67 -116 67 -50
0 -64 -4 -84 -25z"/>
<path d="M7629 3551 c-29 -30 -39 -71 -16 -71 6 0 20 14 29 30 29 51 97 62
141 23 20 -19 22 -56 4 -71 -7 -6 -44 -16 -82 -22 -96 -15 -115 -31 -115 -97
0 -33 5 -46 26 -62 39 -31 113 -29 152 4 36 30 38 30 45 5 6 -24 57 -29 57 -5
0 8 -7 15 -15 15 -12 0 -15 17 -15 93 0 103 -11 153 -37 173 -11 8 -44 13 -81
14 -57 0 -67 -3 -93 -29z m171 -160 c0 -49 -30 -88 -75 -97 -69 -13 -114 19
-101 71 6 25 37 41 106 54 71 14 70 14 70 -28z"/>
<path d="M8258 3565 c-42 -23 -72 -96 -65 -162 3 -30 13 -66 22 -79 39 -59
123 -80 191 -48 94 45 98 241 4 289 -36 19 -116 19 -152 0z m139 -30 c31 -21
57 -96 48 -141 -10 -53 -63 -104 -108 -104 -120 0 -153 199 -42 255 32 16 66
13 102 -10z"/>
<path d="M8604 3555 c-30 -30 -34 -31 -34 -5 0 11 -7 20 -15 20 -13 0 -15 -23
-15 -150 0 -127 2 -150 15 -150 12 0 15 15 15 78 1 100 13 149 44 181 33 33
87 34 119 3 20 -20 22 -34 26 -142 2 -94 6 -120 17 -120 21 0 20 229 -1 269
-17 35 -32 41 -96 41 -40 0 -55 -5 -75 -25z"/>
<path d="M8907 3569 c-16 -9 -47 -65 -47 -84 0 -3 9 -5 20 -5 13 0 20 7 20 18
0 64 129 79 158 19 21 -42 2 -64 -60 -72 -77 -9 -116 -24 -133 -48 -16 -22
-20 -64 -9 -92 9 -23 57 -45 99 -45 38 0 95 24 95 40 0 18 18 10 23 -10 3 -14
14 -20 31 -20 28 0 36 24 11 34 -12 4 -15 27 -15 116 0 104 -1 112 -25 135
-20 21 -33 25 -87 25 -35 0 -71 -5 -81 -11z m160 -181 c-8 -61 -53 -100 -109
-96 -31 2 -46 10 -61 30 -19 25 -19 28 -4 52 19 28 65 44 166 55 10 1 12 -9 8
-41z"/>
<path d="M6220 3420 c0 -127 2 -150 15 -150 13 0 15 23 15 150 0 127 -2 150
-15 150 -13 0 -15 -23 -15 -150z"/>
<path d="M6510 3440 c0 -116 2 -132 20 -150 39 -39 124 -39 166 1 l24 22 0
-21 c0 -13 6 -22 15 -22 13 0 15 23 15 150 0 127 -2 150 -15 150 -12 0 -15
-17 -15 -95 0 -142 -24 -185 -104 -185 -25 0 -40 7 -55 26 -18 23 -21 41 -21
140 0 95 -3 114 -15 114 -13 0 -15 -21 -15 -130z"/>
<path d="M8100 3420 c0 -127 2 -150 15 -150 13 0 15 23 15 150 0 127 -2 150
-15 150 -13 0 -15 -23 -15 -150z"/>
<path d="M3950 3045 c-50 -23 -70 -52 -70 -106 0 -64 25 -84 141 -114 130 -35
166 -77 118 -138 -44 -57 -159 -56 -211 3 -16 17 -28 39 -28 50 0 14 -7 20
-21 20 -19 0 -21 -4 -15 -32 15 -76 67 -111 166 -112 109 -1 161 35 162 113 1
72 -27 97 -142 126 -36 9 -78 21 -93 27 -31 12 -51 50 -42 78 27 87 186 86
218 -1 7 -17 19 -29 29 -29 39 0 6 80 -43 106 -46 23 -127 28 -169 9z"/>
<path d="M8496 3026 c-30 -40 -31 -46 -12 -46 8 0 29 18 46 40 28 36 30 40 12
40 -11 0 -31 -15 -46 -34z"/>
<path d="M3000 2965 c0 -50 -4 -85 -10 -85 -5 0 -10 5 -10 10 0 16 -62 50 -93
50 -45 0 -95 -26 -117 -62 -30 -49 -28 -163 3 -209 42 -63 136 -74 197 -23
l30 26 0 -26 c0 -16 6 -26 15 -26 13 0 15 31 15 215 0 184 -2 215 -15 215 -12
0 -15 -16 -15 -85z m-51 -80 c53 -45 58 -160 9 -212 -27 -29 -78 -39 -115 -21
-55 26 -79 120 -49 192 28 68 100 87 155 41z"/>
<path d="M4570 3020 c0 -23 4 -30 20 -30 16 0 20 7 20 30 0 23 -4 30 -20 30
-16 0 -20 -7 -20 -30z"/>
<path d="M6537 3043 c-7 -11 -167 -412 -167 -418 0 -3 8 -5 19 -5 14 0 25 17
44 68 l25 67 98 0 98 0 27 -65 c20 -47 33 -66 48 -68 12 -2 21 -2 21 0 0 2
-37 98 -83 213 -69 174 -86 211 -104 213 -12 2 -23 0 -26 -5z m68 -152 c19
-52 34 -96 31 -98 -2 -2 -39 -3 -83 -1 l-79 3 39 103 c22 57 44 99 48 95 4 -4
24 -50 44 -102z"/>
<path d="M7480 2835 c0 -184 2 -215 15 -215 13 0 15 31 15 215 0 184 -2 215
-15 215 -13 0 -15 -31 -15 -215z"/>
<path d="M7590 3020 c0 -23 4 -30 20 -30 16 0 20 7 20 30 0 23 -4 30 -20 30
-16 0 -20 -7 -20 -30z"/>
<path d="M3175 2930 c-27 -11 -61 -49 -74 -83 -26 -67 -2 -181 43 -211 75 -49
187 -16 211 62 5 18 2 22 -14 22 -12 0 -21 -6 -21 -14 0 -23 -59 -66 -90 -66
-37 0 -87 43 -98 83 -5 18 -7 35 -5 40 2 4 56 7 119 7 l114 0 0 33 c0 94 -99
163 -185 127z m104 -36 c25 -18 55 -79 46 -94 -7 -11 -188 -14 -198 -4 -11 11
15 64 45 89 34 29 73 32 107 9z"/>
<path d="M3463 2925 c-62 -27 -69 -100 -13 -134 17 -10 55 -23 85 -30 71 -16
96 -47 71 -86 -33 -51 -130 -43 -156 13 -8 17 -23 32 -32 32 -23 0 -23 -17 2
-57 52 -86 230 -56 230 40 0 46 -31 72 -110 92 -36 9 -71 21 -77 27 -34 28 3
88 54 88 36 0 73 -22 79 -47 4 -14 14 -23 25 -23 23 0 24 12 4 49 -24 47 -99
64 -162 36z"/>
<path d="M4320 2922 c-50 -25 -75 -74 -75 -147 1 -69 20 -113 62 -140 33 -22
110 -26 145 -7 27 15 58 61 58 86 0 27 -27 18 -40 -14 -13 -31 -54 -60 -85
-60 -29 0 -74 30 -90 60 -23 44 -19 121 8 161 42 62 134 63 162 1 5 -12 18
-22 27 -22 40 0 4 64 -48 86 -45 19 -82 18 -124 -4z"/>
<path d="M4742 2923 c-45 -22 -72 -78 -72 -149 0 -62 22 -118 54 -139 35 -23
98 -29 139 -12 32 14 77 66 77 90 0 16 -39 6 -45 -13 -9 -27 -53 -60 -82 -60
-39 0 -79 27 -97 64 -31 65 -30 66 104 66 l120 0 0 28 c-1 105 -105 171 -198
125z m130 -41 c20 -19 40 -77 30 -86 -10 -10 -191 -6 -197 4 -10 16 26 80 54
95 32 19 88 12 113 -13z"/>
<path d="M5066 2915 c-34 -23 -36 -23 -36 -5 0 11 -7 20 -15 20 -13 0 -15 -24
-15 -155 0 -127 3 -155 14 -155 11 0 15 24 18 116 l3 116 33 29 c41 37 84 38
117 4 24 -23 25 -30 25 -145 0 -100 2 -120 15 -120 13 0 15 21 15 133 -1 142
-5 158 -54 177 -44 16 -81 12 -120 -15z"/>
<path d="M5379 2921 c-52 -29 -72 -77 -67 -162 3 -59 8 -72 33 -99 77 -80 202
-54 228 48 4 17 1 22 -14 22 -10 0 -19 -6 -19 -14 0 -27 -44 -67 -81 -72 -32
-6 -42 -2 -75 29 -38 34 -39 38 -39 102 0 64 1 68 37 101 51 46 89 46 134 -1
55 -58 79 -34 26 26 -37 41 -108 50 -163 20z"/>
<path d="M5693 2924 c-86 -43 -98 -236 -18 -288 64 -42 158 -24 195 36 25 41
25 48 0 48 -11 0 -20 -6 -20 -14 0 -22 -58 -66 -86 -66 -43 0 -81 27 -98 70
-9 22 -16 45 -16 50 0 6 48 10 120 10 l120 0 0 30 c0 104 -105 169 -197 124z
m116 -30 c25 -18 55 -79 46 -94 -7 -12 -192 -13 -199 -2 -9 15 31 88 55 99 35
17 71 15 98 -3z"/>
<path d="M5993 2925 c-55 -24 -71 -85 -30 -122 12 -12 51 -29 87 -38 78 -20
90 -29 90 -66 0 -37 -47 -64 -97 -56 -41 7 -62 22 -74 54 -5 13 -16 23 -25 23
-23 0 -10 -49 20 -76 69 -61 216 -22 216 57 0 45 -31 72 -110 94 -49 13 -77
27 -87 42 -14 20 -13 24 11 48 15 15 36 25 54 25 33 0 82 -34 82 -56 0 -8 9
-14 20 -14 24 0 25 11 5 49 -24 47 -99 64 -162 36z"/>
<path d="M6874 2926 c-18 -8 -37 -22 -43 -33 -9 -16 -10 -15 -11 10 0 17 -5
27 -15 27 -13 0 -15 -30 -15 -210 0 -180 2 -210 15 -210 12 0 15 16 15 82 l0
82 30 -29 c39 -37 113 -41 157 -9 80 58 85 203 10 273 -32 29 -99 37 -143 17z
m116 -43 c59 -53 59 -163 0 -215 -33 -30 -64 -35 -104 -16 -37 16 -57 52 -62
111 -11 118 88 190 166 120z"/>
<path d="M7225 2928 c-11 -6 -30 -20 -42 -31 l-23 -20 0 26 c0 17 -5 27 -15
27 -13 0 -15 -30 -15 -210 0 -203 1 -210 20 -210 18 0 20 7 20 80 l0 79 24
-24 c49 -48 146 -40 188 16 40 53 45 146 11 212 -28 55 -116 84 -168 55z m103
-34 c75 -52 67 -209 -13 -246 -40 -18 -95 0 -123 42 -20 30 -23 44 -20 99 4
57 8 67 36 92 37 33 84 38 120 13z"/>
<path d="M7775 2930 c-102 -42 -115 -226 -22 -294 44 -32 118 -28 157 9 l30
29 0 -82 c0 -66 3 -82 15 -82 13 0 15 30 15 210 0 180 -2 210 -15 210 -9 0
-15 -9 -15 -25 l0 -25 -20 20 c-37 37 -98 50 -145 30z m104 -35 c41 -21 65
-77 58 -136 -7 -56 -21 -81 -58 -103 -40 -23 -75 -20 -109 12 -61 54 -60 165
1 216 35 29 67 33 108 11z"/>
<path d="M8433 2924 c-86 -43 -98 -236 -18 -288 64 -42 158 -24 195 36 25 41
25 48 0 48 -11 0 -20 -6 -20 -14 0 -23 -59 -66 -89 -66 -48 0 -111 69 -111
120 0 6 44 10 120 10 l120 0 0 30 c0 104 -105 169 -197 124z m116 -30 c25 -18
55 -79 46 -94 -8 -12 -192 -13 -199 -2 -9 15 34 89 57 100 33 16 70 14 96 -4z"/>
<path d="M8743 2920 c-47 -28 -67 -73 -68 -152 0 -76 18 -111 76 -141 39 -21
104 -17 143 8 21 14 46 54 46 75 0 21 -31 9 -42 -16 -14 -29 -56 -54 -92 -54
-38 0 -86 48 -93 93 l-6 37 122 0 122 0 -7 38 c-15 82 -65 132 -134 132 -19 0
-49 -9 -67 -20z m127 -37 c20 -18 32 -39 33 -58 l2 -30 -99 -3 -99 -3 7 33 c8
43 57 88 96 88 18 0 41 -11 60 -27z"/>
<path d="M9044 2926 c-20 -9 -35 -25 -42 -45 -22 -61 15 -101 106 -116 24 -4
55 -18 70 -30 26 -23 26 -25 12 -52 -33 -59 -150 -51 -166 12 -4 15 -13 25
-24 25 -16 0 -17 -4 -10 -31 13 -44 27 -57 72 -70 88 -23 168 17 168 86 0 40
-26 71 -67 81 -79 18 -103 26 -118 40 -36 36 0 84 63 84 32 0 82 -36 82 -60 0
-5 7 -10 15 -10 8 0 15 7 15 16 0 66 -97 104 -176 70z"/>
<path d="M4570 2775 c0 -148 1 -155 20 -155 19 0 20 7 20 155 0 148 -1 155
-20 155 -19 0 -20 -7 -20 -155z"/>
<path d="M7590 2775 c0 -148 1 -155 20 -155 19 0 20 7 20 155 0 148 -1 155
-20 155 -19 0 -20 -7 -20 -155z"/>
<path d="M8050 2811 c0 -142 7 -167 57 -187 46 -20 92 -12 133 22 l30 26 0
-26 c0 -16 6 -26 15 -26 13 0 15 24 15 155 0 148 -1 155 -20 155 -19 0 -20 -7
-20 -105 0 -119 -13 -159 -58 -176 -15 -6 -42 -8 -60 -4 -48 9 -62 49 -62 180
0 87 -3 105 -15 105 -12 0 -15 -20 -15 -119z"/>
</g>
</svg>
